<svg width="185" height="52" viewBox="0 0 185 52" fill="none" xmlns="http://www.w3.org/2000/svg">
<path d="M84.765 0.00410083C84.9404 0.00249145 85.1158 0.00088208 85.2977 0.00088208C91.8494 -0.0361335 98.546 1.07916 103.434 5.74796C106.479 8.86049 106.932 12.6232 106.899 16.7754C106.831 20.0279 105.737 22.9651 103.484 25.3324C100.621 28.0265 96.1835 30.0431 92.2164 30.1767C92.0586 30.1686 92.0586 30.1686 91.8961 30.1606C92.2598 30.822 92.7088 31.3547 93.2238 31.9003C93.3848 32.0709 93.5441 32.2431 93.7034 32.4153C93.7807 32.4974 93.8579 32.5795 93.9368 32.6648C94.2989 33.0574 94.6465 33.4598 94.9958 33.8621C95.3273 34.2419 95.6636 34.6153 96 34.9887C96.4297 35.4635 96.8578 35.9414 97.2778 36.4259C97.7301 36.9457 98.192 37.4559 98.6555 37.966C99.1206 38.4746 99.5809 38.9848 100.035 39.5046C100.123 39.606 100.212 39.7074 100.303 39.812C100.508 40.047 100.711 40.2851 100.91 40.5233C102.775 42.6976 105.077 43.8741 107.668 44.9668C107.221 45.0924 106.825 45.1471 106.361 45.1471C106.229 45.1471 106.099 45.1471 105.964 45.1471C105.751 45.1455 105.751 45.1455 105.534 45.1455C105.383 45.1455 105.231 45.1455 105.077 45.1455C104.578 45.1455 104.081 45.1438 103.582 45.1422C103.237 45.1422 102.891 45.1422 102.545 45.1422C101.636 45.1406 100.727 45.139 99.819 45.1374C98.8904 45.1358 97.9634 45.1358 97.0348 45.1342C95.2146 45.1326 93.3944 45.131 91.5742 45.1278C91.5742 45.0199 91.5742 44.9153 91.5742 44.8059C91.7335 44.8059 91.8929 44.8059 92.057 44.8059C92.057 44.6981 92.057 44.5934 92.057 44.484C92.2164 44.3488 92.2164 44.3488 92.3789 44.212C92.7458 43.8531 92.7458 43.8531 92.7812 43.3156C92.6203 42.107 91.9492 41.2186 91.1526 40.3286C91.0673 40.232 90.982 40.1355 90.8951 40.0357C90.24 39.2889 89.5673 38.5583 88.8946 37.826C88.5228 37.4092 88.172 36.9827 87.8228 36.5466C87.1678 35.7338 86.4661 34.9774 85.7515 34.2178C85.0772 33.4968 84.4463 32.7533 83.8331 31.9792C83.2827 31.2517 83.2827 31.2517 82.4893 30.8816C82.3412 30.88 82.1948 30.8783 82.0419 30.8767C81.8745 30.8735 81.7071 30.8703 81.5349 30.8671C81.3547 30.8671 81.176 30.8671 80.991 30.8671C80.8059 30.8639 80.6208 30.8606 80.4309 30.859C79.8403 30.851 79.2496 30.8478 78.659 30.8429C78.2599 30.8397 77.8591 30.8349 77.4584 30.8301C76.4783 30.8172 75.4966 30.8091 74.5148 30.8043C74.5084 32.1626 74.502 33.5226 74.4988 34.8825C74.4971 35.515 74.4939 36.1458 74.4907 36.7783C74.4875 37.3883 74.4859 37.9982 74.4843 38.6098C74.4843 38.8415 74.4827 39.0733 74.481 39.305C74.4682 41.1011 74.4955 42.6928 75.6414 44.1621C76.0357 44.5194 76.4477 44.7431 76.9289 44.9668C76.3688 45.1535 75.9343 45.1471 75.3421 45.1455C75.231 45.1455 75.12 45.1455 75.0041 45.1455C74.6372 45.1455 74.2686 45.1438 73.9001 45.1422C73.6442 45.1422 73.3883 45.1422 73.134 45.1422C72.4613 45.1406 71.7886 45.139 71.1158 45.1374C70.4303 45.1358 69.7447 45.1358 69.0575 45.1342C67.712 45.1326 66.3666 45.131 65.0195 45.1278C65.0726 45.0199 65.1257 44.9153 65.1805 44.8059C65.3398 44.8059 65.4991 44.8059 65.6633 44.8059C65.718 44.6755 65.718 44.6755 65.7743 44.5436C65.9852 44.1621 65.9852 44.1621 66.3875 43.7179C67.1986 42.7636 67.1584 41.5147 67.1536 40.3238C67.1552 40.1677 67.1552 40.0132 67.1552 39.8538C67.1584 39.3372 67.1568 38.8206 67.1568 38.304C67.1568 37.9322 67.1584 37.5605 67.1584 37.1887C67.1616 36.1812 67.1616 35.1738 67.16 34.1663C67.16 33.3246 67.1616 32.4829 67.1616 31.6412C67.1632 29.541 67.1632 27.4407 67.1632 25.3405C67.1616 23.5187 67.1632 21.6985 67.1664 19.8767C67.1697 18.005 67.1713 16.1316 67.1713 14.2599C67.1697 13.209 67.1713 12.1597 67.1729 11.1088C67.1745 10.1206 67.1745 9.13248 67.1729 8.14432C67.1729 7.78382 67.1729 7.42171 67.1745 7.0596C67.2324 4.55863 67.2324 4.55863 66.6289 2.15744C66.5806 2.03996 66.5323 1.92248 66.4825 1.80177C66.2137 1.35759 65.8258 1.33184 65.3414 1.19182C65.2352 1.08399 65.129 0.979382 65.0195 0.869945C65.4299 0.663945 65.7196 0.686476 66.1783 0.683257C66.3537 0.681648 66.5291 0.680038 66.711 0.678429C66.9025 0.67682 67.0956 0.67521 67.2936 0.673601C67.704 0.670382 68.1144 0.665554 68.5247 0.660726C68.7436 0.659116 68.9609 0.657507 69.1798 0.654288C73.5042 0.620491 73.5042 0.620491 77.8141 0.295398C80.1316 0.0443352 82.4362 0.0105383 84.765 0.00410083ZM80.4695 0.226195C81.1133 0.387132 81.1133 0.387132 81.1133 0.387132L80.4695 0.226195ZM88.1945 0.226195C88.8383 0.387132 88.8383 0.387132 88.8383 0.387132L88.1945 0.226195ZM74.9977 3.44494C74.2058 4.61818 74.267 5.76084 74.2815 7.13846C74.2815 7.38148 74.2815 7.62449 74.2815 7.8659C74.2815 8.52252 74.2847 9.17915 74.2895 9.83416C74.2928 10.5214 74.2928 11.207 74.2944 11.8942C74.296 13.1929 74.3008 14.4917 74.3072 15.7905C74.3153 17.2711 74.3185 18.7501 74.3217 20.2291C74.3282 23.2708 74.3394 26.3126 74.3539 29.3559C75.8941 29.3671 77.4326 29.3752 78.9712 29.38C79.6874 29.3832 80.4019 29.3865 81.1165 29.3913C86.5787 29.4331 91.5726 29.3897 95.9195 25.6543C96.0193 25.5706 96.1175 25.4869 96.2205 25.4C98.8261 23.0166 99.6275 19.5355 99.8094 16.1461C99.8512 14.5319 99.6098 12.9741 99.3588 11.3824C99.2799 10.8819 99.2091 10.383 99.1383 9.88244C99.0321 9.88244 98.9258 9.88244 98.8164 9.88244C98.7955 9.78588 98.773 9.69093 98.7504 9.59115C98.089 7.04351 96.2076 4.95293 93.9883 3.60588C90.9176 1.90638 87.7198 1.28194 84.221 1.30126C84.1083 1.30126 83.9957 1.30287 83.8798 1.30287C81.0553 1.31413 77.2347 1.45898 74.9977 3.44494ZM99.6211 12.4574C99.782 12.7793 99.782 12.7793 99.782 12.7793L99.6211 12.4574ZM99.782 13.7449C99.943 14.3887 99.943 14.3887 99.943 14.3887L99.782 13.7449ZM99.782 16.6418C99.943 17.2856 99.943 17.2856 99.943 17.2856L99.782 16.6418ZM67.2727 41.909C67.4336 42.2309 67.4336 42.2309 67.4336 42.2309L67.2727 41.909Z" fill="#203351"/>
<path d="M166.087 0.38398C165.978 0.944043 165.867 1.50411 165.756 2.06417C165.72 2.23959 165.687 2.41501 165.65 2.59687C165.435 3.67837 165.207 4.75665 164.967 5.83493C164.887 6.19543 164.808 6.55593 164.729 6.91804C164.676 7.15462 164.621 7.39281 164.568 7.62939C164.491 7.96414 164.417 8.29889 164.343 8.63525C164.299 8.82837 164.256 9.0215 164.211 9.22106C164.153 9.74411 164.179 9.94045 164.478 10.3621C164.964 10.7419 165.394 10.6985 165.987 10.6309C166.166 10.6067 166.166 10.6067 166.348 10.5842C166.477 10.5681 166.604 10.5536 166.734 10.5375C167.217 10.4812 167.698 10.4217 168.179 10.3621C169.008 10.2623 169.837 10.1625 170.666 10.0644C171.031 10.0209 171.397 9.97585 171.762 9.93079C171.992 9.90343 172.222 9.87607 172.452 9.84711C172.655 9.82296 172.86 9.79721 173.07 9.77307C174.657 9.62501 174.657 9.62501 175.171 10.0209C175.422 10.3621 175.422 10.3621 175.422 10.684C175.291 10.7033 175.163 10.7226 175.027 10.7435C173.799 10.927 172.57 11.1121 171.342 11.2972C170.711 11.3921 170.079 11.4871 169.448 11.582C168.836 11.6721 168.226 11.7655 167.616 11.8572C167.384 11.8926 167.153 11.9264 166.919 11.9618C165.72 12.1405 164.531 12.332 163.351 12.6152C163.351 12.7214 163.351 12.8277 163.351 12.9371C163.617 12.9371 163.882 12.9371 164.156 12.9371C164.156 12.884 164.156 12.8309 164.156 12.7762C169.436 12.604 174.717 12.4414 179.999 12.3432C180.197 12.34 180.395 12.3352 180.601 12.332C181.157 12.3207 181.714 12.3111 182.271 12.3014C182.435 12.2982 182.599 12.295 182.77 12.2917C182.92 12.2885 183.069 12.2869 183.222 12.2853C183.417 12.2821 183.417 12.2821 183.617 12.2773C183.951 12.2934 183.951 12.2934 184.434 12.4543C184.434 12.7729 184.434 13.0916 184.434 13.4199C182.455 13.605 180.477 13.7627 178.492 13.8802C177.921 13.9156 177.348 13.9526 176.775 13.988C176.384 14.0122 175.991 14.0347 175.6 14.0556C175.026 14.0862 174.451 14.1232 173.875 14.1618C173.701 14.1699 173.526 14.1779 173.346 14.186C172.502 14.2182 172.502 14.2182 171.791 14.6092C171.588 14.8973 171.588 14.8973 171.398 15.3512C171.105 15.6441 170.698 15.5765 170.304 15.6119C169.95 15.5121 169.95 15.5121 169.588 15.0229C169.346 14.7074 169.234 14.5658 168.839 14.4821C168.49 14.4869 168.155 14.5191 167.808 14.5658C167.689 14.5787 167.57 14.5899 167.446 14.6028C167.154 14.6334 166.861 14.6704 166.57 14.7074C166.498 14.8861 166.424 15.0663 166.348 15.2514C166.087 15.834 166.087 15.834 165.765 16.1559C165.266 16.2685 164.814 16.2717 164.317 16.1559C164.058 15.9032 164.058 15.9032 163.834 15.5926C163.515 15.1468 163.516 15.1468 163.026 14.9488C162.646 14.9488 162.281 14.9842 161.903 15.0293C161.702 15.0293 161.702 15.0293 161.497 15.0293C160.496 15.0534 159.989 15.3319 159.278 16.0287C159.109 16.209 158.943 16.3924 158.786 16.5823C158.415 16.8881 158.079 16.9187 157.607 16.9911C157.448 17.0169 157.287 17.041 157.123 17.0684C157.001 17.0861 156.878 17.1038 156.753 17.1215C156.952 17.3049 156.952 17.3049 157.155 17.4932C157.558 17.9262 157.558 17.9262 157.558 18.409C157.316 18.6327 157.316 18.6327 156.985 18.8612C156.532 19.1799 156.132 19.5017 155.737 19.888C155.047 20.4899 154.254 20.646 153.373 20.823C153.198 20.8601 153.021 20.8955 152.841 20.9341C149.919 21.1819 149.919 21.1819 148.867 20.5012C148.246 19.888 147.747 19.3875 147.731 18.4894C147.734 18.3044 147.737 18.1177 147.74 17.9262C147.74 17.82 147.74 17.7137 147.74 17.6043C146.894 17.5995 146.047 17.5979 145.201 17.5962C144.913 17.5946 144.626 17.593 144.34 17.5914C143.381 17.5882 142.423 17.5898 141.464 17.6043C141.346 17.6059 141.227 17.6075 141.107 17.6091C139.486 17.6413 138.058 17.9439 136.525 18.4701C132.619 19.7689 132.619 19.7689 131.164 19.6965C130.749 19.484 130.533 19.2346 130.198 18.8918C130.09 18.5426 130.09 18.5426 130.037 18.248C129.883 18.2497 129.883 18.2497 129.725 18.2513C128.639 18.2625 127.552 18.269 126.466 18.2738C126.062 18.277 125.658 18.2802 125.254 18.2851C121.408 18.3237 117.672 18.203 114.648 15.5024C114.265 15.0293 114.265 15.0293 114.246 14.6269C115.361 12.1469 117.965 10.7097 120.31 9.57673C120.428 9.5204 120.545 9.46247 120.666 9.40292C122.686 8.46465 124.578 8.17336 126.775 8.18945C127.034 8.18945 127.295 8.18945 127.554 8.18945C128.248 8.18784 128.941 8.19106 129.635 8.1975C130.071 8.19911 130.506 8.20072 130.942 8.20232C136.398 8.22003 141.837 8.41154 147.285 8.71732C147.903 8.75273 148.521 8.78653 149.141 8.82032C155.427 9.16312 155.427 9.16312 158.523 9.39648C158.567 9.25486 158.61 9.11323 158.655 8.96839C158.834 8.46143 159.043 8.03012 159.307 7.5634C159.399 7.40086 159.49 7.23831 159.584 7.07093C159.785 6.71687 159.988 6.36442 160.189 6.01196C160.664 5.18153 161.132 4.35431 161.555 3.49651C162.214 2.20096 162.724 1.20959 164.137 0.675277C164.814 0.464449 165.382 0.371105 166.087 0.38398ZM135.831 8.43086C135.831 8.48396 135.831 8.53707 135.831 8.59179C136.256 8.59179 136.681 8.59179 137.119 8.59179C137.119 8.53868 137.119 8.48557 137.119 8.43086C136.694 8.43086 136.269 8.43086 135.831 8.43086ZM139.854 8.59179C139.854 8.6449 139.854 8.69801 139.854 8.75273C140.279 8.75273 140.704 8.75273 141.142 8.75273C141.142 8.69962 141.142 8.64651 141.142 8.59179C140.717 8.59179 140.292 8.59179 139.854 8.59179ZM143.234 8.75273C143.234 8.80584 143.234 8.85895 143.234 8.91367C143.765 8.91367 144.296 8.91367 144.844 8.91367C144.844 8.86056 144.844 8.80745 144.844 8.75273C144.312 8.75273 143.781 8.75273 143.234 8.75273ZM146.775 8.91367C146.775 8.96678 146.775 9.01989 146.775 9.0746C147.147 9.0746 147.518 9.0746 147.901 9.0746C147.901 9.0215 147.901 8.96839 147.901 8.91367C147.53 8.91367 147.158 8.91367 146.775 8.91367ZM149.994 9.0746C149.994 9.12772 149.994 9.18082 149.994 9.23554C150.312 9.23554 150.631 9.23554 150.959 9.23554C150.959 9.18243 150.959 9.12932 150.959 9.0746C150.64 9.0746 150.322 9.0746 149.994 9.0746ZM152.729 9.23554C152.729 9.28865 152.729 9.34176 152.729 9.39648C153.154 9.39648 153.579 9.39648 154.017 9.39648C154.017 9.34337 154.017 9.29026 154.017 9.23554C153.592 9.23554 153.167 9.23554 152.729 9.23554ZM181.537 12.4543C181.537 12.5074 181.537 12.5605 181.537 12.6152C182.121 12.6152 182.706 12.6152 183.308 12.6152C183.308 12.5621 183.308 12.509 183.308 12.4543C182.723 12.4543 182.139 12.4543 181.537 12.4543ZM174.778 12.6152C174.778 12.6683 174.778 12.7214 174.778 12.7762C175.575 12.7762 176.371 12.7762 177.192 12.7762C177.192 12.7231 177.192 12.6699 177.192 12.6152C176.395 12.6152 175.599 12.6152 174.778 12.6152ZM168.823 12.7762C168.823 12.8293 168.823 12.8824 168.823 12.9371C169.354 12.9371 169.885 12.9371 170.433 12.9371C170.433 12.884 170.433 12.8309 170.433 12.7762C169.902 12.7762 169.37 12.7762 168.823 12.7762Z" fill="#203351"/>
<path d="M20.5791 0.0546875C20.7094 0.0579063 20.8414 0.061125 20.9766 0.0643437C21.1247 0.0675625 21.2727 0.0707812 21.4256 0.074C21.667 0.0804375 21.667 0.0804375 21.9133 0.086875C22.0774 0.0917031 22.2416 0.0949219 22.4105 0.0981406C22.9368 0.111016 23.4647 0.1255 23.991 0.138375C24.3466 0.146422 24.7023 0.156078 25.058 0.164125C25.9335 0.185047 26.8074 0.205969 27.6812 0.2285C29.8056 7.33067 31.901 14.4425 33.9997 21.5527C34.1139 21.9358 34.2266 22.3172 34.3392 22.7002C34.4084 22.9336 34.476 23.1653 34.5452 23.3987C34.5774 23.5097 34.6112 23.6208 34.645 23.735C34.8027 24.2693 34.9588 24.802 35.1166 25.3364C35.4079 26.3213 35.6992 27.3078 35.9905 28.2944C36.5328 30.1259 37.0703 31.9573 37.5982 33.792C37.8284 34.587 38.0585 35.3821 38.2886 36.1771C38.4464 36.7179 38.6025 37.2586 38.757 37.7994C39.6743 41.7005 39.6743 41.7005 42.1656 44.6472C42.6082 44.8677 42.6082 44.8677 42.9703 44.9691C42.3748 45.1574 41.8116 45.1494 41.1903 45.1494C41.0214 45.1494 41.0214 45.1494 40.8475 45.1494C40.4742 45.1494 40.1024 45.1478 39.729 45.1462C39.4699 45.1462 39.2124 45.1462 38.9533 45.1462C38.2725 45.1445 37.5918 45.1429 36.911 45.1413C36.2174 45.1397 35.5221 45.1397 34.8269 45.1381C33.4653 45.1365 32.1022 45.1333 30.7391 45.1301C30.7922 45.0238 30.8453 44.9176 30.9 44.8082C31.0593 44.8082 31.2187 44.8082 31.3828 44.8082C31.4488 44.6698 31.4488 44.6698 31.5148 44.5265C31.7047 44.1644 31.7047 44.1644 31.9541 43.8876C32.4981 43.0379 32.3146 41.7005 32.1103 40.7381C31.9026 39.9366 31.6435 39.1545 31.3828 38.3707C31.2621 37.9281 31.172 37.4823 31.0819 37.0333C30.9338 36.359 30.702 35.7812 30.4172 35.1519C30.3609 34.9379 30.3078 34.7238 30.2563 34.5082C30.1726 34.2249 30.0873 33.9417 30.0004 33.6584C29.9505 33.4959 29.9006 33.335 29.8507 33.1676C29.7718 32.9149 29.7718 32.9149 29.693 32.6574C29.5916 32.3243 29.4886 31.9911 29.3872 31.6564C29.3421 31.5099 29.2955 31.3619 29.2488 31.209C29.1764 30.9611 29.1072 30.7133 29.0444 30.4622C28.9655 30.1291 28.9655 30.1291 28.7982 29.6801C28.6469 29.1973 28.6469 29.1973 28.6469 28.5535C23.0704 28.6066 17.4939 28.6597 11.7484 28.7144C9.73511 35.3644 9.73511 35.3644 10.9872 41.9773C11.9464 43.4145 13.8632 43.878 15.4339 44.3399C16.0889 44.533 16.7343 44.7502 17.3813 44.9691C17.3813 45.0222 17.3813 45.0753 17.3813 45.1301C11.6454 45.1301 5.90963 45.1301 0 45.1301C0.0531094 45.0238 0.106219 44.9176 0.160938 44.8082C0.267156 44.8082 0.373375 44.8082 0.482813 44.8082C0.482813 44.702 0.482813 44.5957 0.482813 44.4863C0.719391 44.2948 0.719391 44.2948 1.04609 44.0743C8.53773 38.5542 11.7388 22.3172 14.8771 14.0321C15.3261 12.8476 15.7751 11.6647 16.2241 10.4802C16.2627 10.3756 16.303 10.271 16.3432 10.1648C16.3834 10.0602 16.4221 9.95717 16.4623 9.84934C16.5428 9.64013 16.6216 9.43091 16.7021 9.22169C16.7407 9.11708 16.7793 9.01408 16.8196 8.90786C17.1559 8.0227 17.4923 7.13594 17.8287 6.25078C18.033 5.71003 18.2374 5.17089 18.4418 4.63175C18.7009 3.95259 18.9568 3.27183 19.2143 2.59106C19.3318 2.27884 19.4493 1.96662 19.5684 1.65602C19.6489 1.44036 19.6489 1.44036 19.7309 1.22148C19.7792 1.09273 19.8275 0.963984 19.879 0.830406C19.9208 0.71775 19.9643 0.603484 20.0077 0.487609C20.1574 0.133547 20.1864 0.0723906 20.5791 0.0546875ZM20.7609 2.32069C20.3087 3.43277 19.8854 4.55128 19.4815 5.68267C19.393 5.93052 19.393 5.93052 19.3012 6.1848C19.1081 6.72716 18.9134 7.26952 18.7203 7.81348C18.5835 8.19491 18.4467 8.57633 18.3099 8.95775C17.893 10.1245 17.4762 11.293 17.0594 12.4598C16.9966 12.6368 16.9338 12.8154 16.8679 12.9973C15.6496 16.414 14.4361 19.8323 13.2548 23.2635C13.1647 23.5274 13.073 23.793 12.9812 24.0569C12.8557 24.4174 12.7318 24.7795 12.6095 25.14C12.5547 25.2961 12.5547 25.2961 12.4984 25.4555C12.2956 26.0557 12.1572 26.6383 12.0703 27.266C12.6255 27.5444 13.2661 27.4398 13.8776 27.4302C14.0305 27.4285 14.185 27.4269 14.3428 27.4253C14.8529 27.4205 15.3647 27.4141 15.8749 27.4076C16.2273 27.4044 16.5798 27.3996 16.9338 27.3964C17.8641 27.3867 18.7959 27.3754 19.7261 27.3642C20.6756 27.3529 21.6252 27.3416 22.5747 27.332C24.4368 27.3111 26.3004 27.2885 28.1641 27.266C28.0852 26.5498 28.0852 26.5498 28.0031 25.8176C27.8969 25.8176 27.7907 25.8176 27.6812 25.8176C27.6281 25.2865 27.575 24.7554 27.5203 24.2082C27.4141 24.2082 27.3079 24.2082 27.1984 24.2082C27.0101 23.2989 26.8363 22.3944 26.7156 21.4722C26.6094 21.4722 26.5032 21.4722 26.3938 21.4722C26.3793 21.3805 26.3632 21.2888 26.3471 21.1938C26.1588 20.1783 25.882 19.2159 25.5585 18.2358C25.4281 17.7707 25.4281 17.7707 25.4281 17.1269C25.3219 17.1269 25.2157 17.1269 25.1063 17.1269C25.0918 17.0352 25.0757 16.9435 25.0596 16.8485C24.8713 15.833 24.5945 14.8706 24.271 13.8905C24.1406 13.4254 24.1406 13.4254 24.1406 12.7816C24.0344 12.7816 23.9282 12.7816 23.8188 12.7816C23.6305 11.8723 23.4566 10.9679 23.3359 10.0457C23.2297 10.0457 23.1235 10.0457 23.0141 10.0457C22.961 9.51459 22.9078 8.9835 22.8531 8.43631C22.7469 8.43631 22.6407 8.43631 22.5312 8.43631C22.5312 8.06455 22.5312 7.69278 22.5312 7.30975C22.425 7.30975 22.3188 7.30975 22.2094 7.30975C22.1563 6.77866 22.1032 6.24756 22.0484 5.70038C21.9422 5.70038 21.836 5.70038 21.7266 5.70038C21.4192 4.21492 21.4192 4.21492 21.3355 3.46817C21.2389 2.93547 21.0941 2.73108 20.7609 2.32069ZM32.5094 41.9113C32.5094 42.2831 32.5094 42.6548 32.5094 43.0379C32.5625 43.0379 32.6156 43.0379 32.6703 43.0379C32.6703 42.6661 32.6703 42.2943 32.6703 41.9113C32.6172 41.9113 32.5641 41.9113 32.5094 41.9113Z" fill="#203351"/>
<path d="M47.9598 0.706812C49.331 0.703594 50.7021 0.700375 52.0733 0.698766C52.709 0.697156 53.3463 0.697156 53.982 0.693937C54.5968 0.692328 55.2116 0.692328 55.8264 0.692328C56.0614 0.690719 56.2947 0.690719 56.5297 0.689109C56.858 0.689109 57.1863 0.689109 57.5146 0.689109C57.7029 0.6875 57.8896 0.6875 58.0811 0.6875C58.5366 0.705203 58.9438 0.763141 59.3863 0.86775C59.3863 0.973969 59.3863 1.08019 59.3863 1.18962C59.1723 1.27492 59.1723 1.27492 58.9534 1.36022C58.1519 1.83016 57.7689 2.43367 57.4148 3.28181C57.1557 4.31986 57.1091 5.32733 57.1123 6.38952C57.1107 6.61161 57.1107 6.61161 57.1107 6.83692C57.1091 7.32939 57.1091 7.82186 57.1091 8.31433C57.1091 8.66839 57.1091 9.02245 57.1075 9.37651C57.1075 10.3373 57.1058 11.2981 57.1058 12.2589C57.1058 12.8592 57.1058 13.4611 57.1058 14.0614C57.1042 16.049 57.1026 18.0366 57.1026 20.0257C57.1026 20.1867 57.1026 20.1867 57.1026 20.3492C57.1026 20.5102 57.1026 20.5102 57.1026 20.6743C57.1042 22.4108 57.1026 24.1474 57.0994 25.8839C57.0978 27.6687 57.0962 29.4535 57.0962 31.2399C57.0962 32.2409 57.0962 33.2419 57.0946 34.243C57.093 35.1861 57.093 36.1275 57.0946 37.069C57.0946 37.415 57.093 37.7594 57.093 38.1039C56.9433 41.3371 56.9433 41.3371 58.2598 44.1599C58.6685 44.4705 59.0902 44.7297 59.5473 44.9646C58.9904 45.1497 58.5623 45.1449 57.9749 45.1433C57.8655 45.1433 57.756 45.1433 57.6418 45.1433C57.2797 45.1433 56.9159 45.1433 56.5522 45.1417C56.3012 45.1417 56.0485 45.14 55.7974 45.14C55.1344 45.14 54.4713 45.1384 53.8082 45.1368C53.1323 45.1352 52.4564 45.1336 51.7804 45.1336C50.4527 45.132 49.1266 45.1288 47.7988 45.1256C47.9227 45.0016 48.0467 44.8793 48.1738 44.7522C49.3406 43.5806 49.7623 42.7131 49.7735 41.0876C49.7735 40.9444 49.7719 40.7996 49.7719 40.6499C49.7719 40.4938 49.7735 40.3377 49.7735 40.1767C49.7751 39.6537 49.7751 39.1322 49.7735 38.6108C49.7751 38.2358 49.7751 37.8608 49.7768 37.4859C49.7784 36.4687 49.7784 35.45 49.7784 34.4329C49.7784 33.4753 49.78 32.5177 49.78 31.5601C49.7816 29.5484 49.7816 27.5351 49.78 25.5234C49.78 23.6839 49.7816 21.846 49.7848 20.0064C49.788 18.117 49.7896 16.226 49.788 14.3366C49.788 13.276 49.788 12.2155 49.7912 11.1549C49.7928 10.1571 49.7928 9.15925 49.7912 8.16305C49.7896 7.79772 49.7912 7.43078 49.7912 7.06545C49.7945 6.56655 49.7928 6.06603 49.7896 5.56552C49.7912 5.42228 49.7928 5.27905 49.7945 5.13098C49.7832 3.9497 49.5772 2.84406 48.9447 1.83337C48.5794 1.48897 48.2784 1.33608 47.7988 1.18962C47.8519 1.0303 47.905 0.870969 47.9598 0.706812Z" fill="#203351"/>
<path d="M141.304 21.7937C143.106 21.7067 144.543 21.755 145.99 22.9395C147.192 24.0757 148.118 25.4566 149.067 26.8004C149.55 27.4812 150.038 28.1587 150.527 28.8347C150.615 28.9554 150.702 29.0777 150.792 29.2032C151.063 29.5766 151.333 29.95 151.604 30.3233C152.637 31.7525 153.67 33.1816 154.694 34.6172C155.498 35.7469 156.313 36.8687 157.124 37.992C157.491 38.5006 157.858 39.0075 158.224 39.5161C158.487 39.8798 158.749 40.2435 159.013 40.6073C159.309 41.016 159.604 41.4264 159.895 41.8368C160.011 41.9977 160.125 42.1571 160.244 42.3228C160.341 42.4596 160.437 42.5964 160.537 42.7365C160.758 43.0551 160.758 43.0551 161.099 43.1983C161.084 41.6324 161.07 40.0665 161.052 38.5006C161.044 37.7731 161.038 37.0473 161.031 36.3199C161.025 35.615 161.017 34.9101 161.009 34.2068C161.005 33.9396 161.004 33.6741 161.002 33.4069C160.989 31.6672 160.88 29.9628 160.658 28.2376C160.629 28.0091 160.602 27.7805 160.574 27.552C160.478 26.7344 160.478 26.7344 160.198 25.9668C160.12 25.8058 160.12 25.8058 160.04 25.6417C159.956 25.4791 159.956 25.4791 159.872 25.315C159.815 25.2007 159.757 25.088 159.697 24.9722C159.267 24.1643 158.844 23.5495 158.041 23.0812C157.94 23.0184 157.84 22.954 157.735 22.8896C156.948 22.4422 156.203 22.3183 155.305 22.2765C155.305 22.1702 155.305 22.064 155.305 21.9546C156.052 21.7663 156.774 21.7711 157.539 21.7727C157.676 21.7727 157.812 21.7727 157.952 21.7711C158.241 21.7711 158.529 21.7727 158.817 21.7727C159.258 21.7727 159.697 21.7727 160.138 21.7711C160.418 21.7711 160.698 21.7727 160.978 21.7727C161.11 21.7727 161.242 21.7711 161.377 21.7711C161.955 21.7743 162.473 21.7985 163.03 21.9546C163.03 22.0608 163.03 22.167 163.03 22.2765C162.93 22.3167 162.829 22.3569 162.726 22.3988C162.208 22.703 162.156 23.0651 161.992 23.6219C161.834 24.3799 161.836 25.1299 161.841 25.9024C161.841 26.0826 161.839 26.2613 161.839 26.448C161.836 27.0386 161.838 27.6292 161.839 28.2215C161.839 28.6335 161.839 29.0471 161.838 29.4607C161.838 30.325 161.838 31.1892 161.841 32.0534C161.844 33.048 161.842 34.0442 161.839 35.0404C161.838 36.0028 161.838 36.9636 161.839 37.926C161.839 38.3348 161.839 38.742 161.838 39.1492C161.836 39.7189 161.839 40.2902 161.841 40.8599C161.839 41.111 161.839 41.111 161.838 41.3669C161.849 42.5401 161.953 43.657 162.739 44.576C162.835 44.6532 162.93 44.7289 163.03 44.8077C162.303 44.7948 161.575 44.7771 160.848 44.7578C160.539 44.7514 160.539 44.7514 160.225 44.7466C158.393 44.6935 157.307 44.3362 156.018 42.9827C155.344 42.1989 154.797 41.3089 154.225 40.4479C153.749 39.7285 153.243 39.0365 152.72 38.3509C151.982 37.3788 151.269 36.3907 150.569 35.3913C149.984 34.5592 149.394 33.732 148.797 32.908C148.71 32.7889 148.623 32.6682 148.534 32.5443C148.271 32.1806 148.005 31.8152 147.741 31.4499C147.389 30.9639 147.036 30.4778 146.685 29.9918C146.6 29.8727 146.513 29.7552 146.425 29.6329C145.982 29.0197 145.544 28.405 145.111 27.7854C145.024 27.6614 144.936 27.5375 144.847 27.4088C144.682 27.1722 144.517 26.9356 144.355 26.699C144.281 26.5928 144.205 26.4866 144.13 26.3772C144.065 26.2838 144.001 26.1905 143.935 26.0955C143.673 25.7608 143.376 25.4727 143.074 25.1733C143.083 26.5896 143.096 28.0058 143.112 29.4221C143.119 30.0787 143.125 30.737 143.13 31.3952C142.945 37.6718 142.945 37.6717 145.559 43.1211C146.674 44.1221 147.899 44.444 149.35 44.6468C149.35 44.6999 149.35 44.753 149.35 44.8077C146.695 44.8077 144.039 44.8077 141.304 44.8077C141.516 44.5422 141.728 44.2766 141.947 44.003C142.147 43.6039 142.131 43.3335 142.134 42.8877C142.136 42.7188 142.137 42.5514 142.139 42.3792C142.14 42.1941 142.14 42.009 142.142 41.8191C142.144 41.6244 142.145 41.4296 142.147 41.2301C142.152 40.5847 142.155 39.9394 142.158 39.294C142.158 39.1846 142.16 39.0751 142.16 38.9609C142.165 37.9244 142.169 36.8896 142.171 35.8532C142.174 34.5286 142.182 33.2041 142.194 31.8796C142.2 30.9478 142.205 30.016 142.206 29.0841C142.206 28.5273 142.21 27.972 142.214 27.4152C142.222 26.794 142.221 26.1728 142.221 25.5515C142.224 25.3681 142.227 25.1862 142.231 24.9979C142.221 23.9261 142.079 23.3258 141.334 22.5356C141.271 22.4503 141.207 22.365 141.143 22.2765C141.196 22.1171 141.249 21.9578 141.304 21.7937ZM142.43 24.0468C142.43 30.3137 142.43 36.5806 142.43 43.0374C142.483 43.0374 142.536 43.0374 142.591 43.0374C142.591 36.7705 142.591 30.5036 142.591 24.0468C142.538 24.0468 142.485 24.0468 142.43 24.0468ZM161.099 30.1624C161.26 30.8062 161.26 30.8062 161.26 30.8062L161.099 30.1624ZM161.099 43.1983C161.26 43.6812 161.26 43.6812 161.26 43.6812L161.099 43.1983Z" fill="#203351"/>
<path d="M166.249 21.7951C168.17 21.7758 170.094 21.7629 172.015 21.7532C172.908 21.7484 173.8 21.7436 174.693 21.7339C175.554 21.7259 176.415 21.7211 177.275 21.7195C177.605 21.7178 177.933 21.7146 178.261 21.7098C178.721 21.705 179.182 21.7034 179.64 21.7034C179.777 21.7001 179.914 21.6985 180.056 21.6953C180.435 21.6985 180.435 21.6985 181.055 21.7951C181.548 22.3745 181.739 23.1067 181.977 23.8229C182.017 23.9388 182.056 24.0547 182.096 24.1737C182.178 24.4168 182.259 24.6598 182.339 24.9028C182.463 25.2762 182.59 25.6479 182.716 26.0197C182.796 26.2563 182.875 26.4929 182.954 26.7294C182.991 26.8405 183.03 26.9531 183.068 27.0674C183.326 27.856 183.326 27.856 183.147 28.3935C183.105 28.3098 183.065 28.2262 183.022 28.1392C181.794 25.7783 180.028 24.14 177.514 23.2435C175.422 22.6545 173.639 22.6175 171.56 23.2242C171.154 23.4511 171.087 23.6201 170.916 24.0482C170.865 24.4312 170.865 24.4313 170.865 24.8449C170.861 25.0026 170.858 25.1603 170.855 25.3228C170.852 25.5771 170.852 25.5771 170.85 25.8362C170.847 26.01 170.844 26.1839 170.84 26.3641C170.831 26.9193 170.823 27.4762 170.816 28.0314C170.81 28.408 170.803 28.7846 170.797 29.1628C170.781 30.0866 170.768 31.0104 170.755 31.9342C171.52 31.9358 172.284 31.9293 173.048 31.9181C173.309 31.9148 173.568 31.9148 173.829 31.9148C174.202 31.9148 174.577 31.91 174.951 31.902C175.067 31.9036 175.182 31.9052 175.302 31.9068C175.757 31.8939 176.119 31.8617 176.478 31.5656C176.887 31.0876 177.16 30.6 177.354 30.0029C177.46 30.0029 177.566 30.0029 177.675 30.0029C177.729 29.6842 177.782 29.3656 177.836 29.0373C177.889 29.0373 177.943 29.0373 177.997 29.0373C177.997 31.321 177.997 33.6047 177.997 35.9576C177.732 35.5601 177.55 35.2157 177.363 34.7811C176.98 33.6803 176.98 33.6803 176.227 32.8998C175.828 32.874 175.434 32.8579 175.034 32.8483C174.917 32.8451 174.799 32.8418 174.677 32.8386C174.302 32.829 173.927 32.8193 173.552 32.8097C173.296 32.8016 173.042 32.7952 172.788 32.7887C172.165 32.771 171.54 32.7549 170.916 32.7388C170.908 34.0521 170.903 35.3653 170.9 36.6802C170.898 37.2902 170.895 37.9001 170.892 38.5101C170.889 39.0975 170.887 39.6865 170.885 40.2755C170.885 40.4992 170.884 40.7246 170.882 40.9499C170.879 41.2637 170.879 41.5775 170.879 41.893C170.879 42.1617 170.879 42.1617 170.877 42.4353C170.884 42.9133 170.884 42.9133 171.238 43.3607C172.129 43.6955 173.028 43.784 173.974 43.8435C174.162 43.8564 174.162 43.8564 174.355 43.8693C176.681 43.9546 178.876 43.211 180.633 41.6902C181.218 41.1366 181.708 40.5588 182.156 39.8893C182.219 39.8137 182.28 39.738 182.343 39.6592C182.449 39.6592 182.555 39.6592 182.664 39.6592C182.711 39.5063 182.758 39.3534 182.806 39.1957C182.986 38.6935 182.986 38.6935 183.308 38.3717C182.948 40.5314 182.069 42.5721 181.377 44.6482C173.808 44.7287 173.808 44.7287 166.088 44.8092C166.326 44.4905 166.326 44.4905 166.571 44.1654C166.996 43.2497 166.938 42.3146 166.934 41.3249C166.934 41.1382 166.936 40.9499 166.936 40.7567C166.938 40.1371 166.936 39.5159 166.936 38.8963C166.936 38.465 166.936 38.0337 166.936 37.6008C166.938 36.6963 166.936 35.7918 166.934 34.8857C166.933 33.8429 166.933 32.8 166.934 31.7571C166.936 30.8591 166.936 29.9611 166.936 29.063C166.936 28.5271 166.936 27.9912 166.936 27.4569C166.938 26.8582 166.936 26.2611 166.934 25.6624C166.934 25.487 166.936 25.3116 166.936 25.1313C166.931 24.1303 166.825 23.2467 166.571 22.2779C166.411 22.2779 166.252 22.2779 166.088 22.2779C166.141 22.1186 166.194 21.9592 166.249 21.7951ZM167.054 23.4045C167.214 23.7263 167.214 23.7263 167.214 23.7263L167.054 23.4045ZM173.33 44.0045C173.974 44.1654 173.974 44.1654 173.974 44.1654L173.33 44.0045Z" fill="#203351"/>
<path d="M113.139 21.7911C113.835 21.7879 114.532 21.7847 115.227 21.7831C115.463 21.7815 115.7 21.7799 115.937 21.7783C116.278 21.7767 116.617 21.7767 116.958 21.775C117.266 21.7734 117.266 21.7734 117.58 21.7734C118.054 21.7879 118.473 21.841 118.933 21.9521C118.933 22.0583 118.933 22.1645 118.933 22.274C118.837 22.2997 118.74 22.3271 118.642 22.3544C118.096 22.7278 117.963 23.2653 117.807 23.8833C117.741 24.5062 117.742 25.1225 117.747 25.747C117.745 25.9305 117.745 26.1139 117.745 26.3022C117.744 26.9025 117.745 27.5044 117.749 28.1047C117.749 28.5248 117.749 28.9432 117.749 29.3616C117.749 30.2371 117.75 31.1142 117.752 31.9897C117.757 33.002 117.757 34.0143 117.755 35.0266C117.755 36.0019 117.755 36.9772 117.757 37.9541C117.758 38.3677 117.758 38.7829 117.758 39.1965C117.758 39.7759 117.76 40.3537 117.763 40.9314C117.762 41.1036 117.762 41.2758 117.762 41.4529C117.762 41.609 117.763 41.7667 117.765 41.9292C117.765 42.1336 117.765 42.1336 117.766 42.3429C117.811 42.7565 117.898 43.0107 118.129 43.3568C120.288 44.1888 123.113 43.9764 125.24 43.1862C126.798 42.4764 127.951 41.3611 128.966 40.0028C129.233 39.6552 129.233 39.6552 129.492 39.3993C129.83 39.0549 129.996 38.6397 130.199 38.2068C130.421 38.651 130.266 38.902 130.117 39.3542C130.059 39.5216 130.059 39.5216 129.999 39.6938C129.941 39.866 129.941 39.866 129.882 40.0431C129.758 40.4148 129.631 40.7834 129.505 41.1535C129.422 41.4014 129.338 41.6492 129.254 41.8971C128.944 42.8208 128.63 43.7382 128.268 44.6443C120.7 44.7247 120.7 44.7247 112.979 44.8052C113.218 44.4865 113.218 44.4865 113.461 44.1615C113.889 43.2409 113.828 42.2962 113.825 41.3016C113.825 41.1117 113.827 40.9218 113.827 40.727C113.828 40.2072 113.828 39.689 113.827 39.1708C113.825 38.6268 113.827 38.0812 113.827 37.5373C113.828 36.6231 113.827 35.7106 113.825 34.7965C113.823 33.7407 113.823 32.6866 113.825 31.6325C113.827 30.7248 113.827 29.8171 113.827 28.911C113.827 28.3687 113.827 27.8279 113.827 27.2872C113.828 26.6836 113.827 26.0801 113.825 25.4766C113.825 25.298 113.827 25.1209 113.827 24.9375C113.822 24.0491 113.804 23.2621 113.461 22.4349C113.302 22.3818 113.143 22.3287 112.979 22.274C113.032 22.1146 113.085 21.9553 113.139 21.7911ZM120.221 44.0005C120.864 44.1615 120.864 44.1615 120.864 44.1615L120.221 44.0005ZM121.991 44.0005C122.635 44.1615 122.635 44.1615 122.635 44.1615L121.991 44.0005Z" fill="#203351"/>
<path d="M133.734 21.7681C133.847 21.7681 133.959 21.7681 134.075 21.7681C134.314 21.7681 134.553 21.7681 134.792 21.7681C135.157 21.7697 135.521 21.7681 135.886 21.7681C136.118 21.7681 136.349 21.7681 136.581 21.7681C136.898 21.7681 136.898 21.7681 137.222 21.7681C137.653 21.7858 137.999 21.8196 138.408 21.95C138.408 22.0562 138.408 22.1624 138.408 22.2718C138.308 22.2783 138.21 22.2863 138.107 22.2928C137.729 22.4038 137.729 22.4038 137.585 22.8029C137.383 23.6511 137.396 24.4686 137.396 25.3377C137.396 25.5324 137.394 25.7272 137.392 25.9267C137.391 26.4578 137.389 26.9905 137.389 27.5216C137.389 27.8548 137.387 28.1879 137.387 28.5194C137.384 29.6814 137.383 30.8434 137.383 32.0053C137.383 33.0852 137.379 34.1667 137.375 35.2482C137.37 36.1768 137.368 37.1071 137.37 38.0373C137.37 38.5925 137.368 39.1461 137.365 39.7014C137.362 40.3194 137.363 40.9374 137.365 41.557C137.362 41.8306 137.362 41.8306 137.359 42.1106C137.36 42.2796 137.362 42.4486 137.363 42.624C137.363 42.8429 137.363 42.8429 137.363 43.0666C137.442 43.662 137.442 43.662 138.086 44.6421C135.299 44.7226 135.299 44.7226 132.453 44.8031C132.666 44.5375 132.878 44.272 133.097 43.9984C133.258 43.5172 133.279 43.1969 133.28 42.6932C133.28 42.5242 133.282 42.3536 133.282 42.1782C133.282 41.9915 133.282 41.8048 133.282 41.6133C133.282 41.4153 133.282 41.219 133.284 41.0162C133.285 40.4771 133.285 39.9379 133.285 39.3988C133.285 38.9482 133.285 38.4976 133.287 38.0485C133.288 36.9847 133.288 35.9226 133.288 34.8604C133.288 33.7644 133.29 32.6684 133.292 31.5724C133.295 30.6309 133.295 29.6911 133.295 28.7496C133.295 28.1879 133.295 27.6262 133.296 27.0629C133.3 26.4369 133.298 25.8092 133.298 25.1832C133.298 24.9965 133.3 24.8114 133.3 24.6199C133.3 24.4477 133.298 24.2771 133.298 24.1017C133.298 23.8796 133.298 23.8796 133.298 23.6527C133.229 22.9333 133.002 22.4231 132.453 21.95C132.762 21.641 133.325 21.7681 133.734 21.7681Z" fill="#203351"/>
<path d="M31.0613 48.5078C31.3848 48.5545 31.7067 48.6076 32.027 48.6687C32.0237 48.8474 32.0205 49.0276 32.0173 49.2127C31.9851 49.768 31.9851 49.768 32.1879 50.1172C32.3472 49.6392 32.5065 49.1612 32.6707 48.6687C33.1535 48.8297 33.1535 48.8297 33.3418 49.1274C33.4931 49.4573 33.646 49.7873 33.7973 50.1172C33.8504 49.5861 33.9035 49.055 33.9582 48.5078C34.1706 48.5609 34.3831 48.614 34.602 48.6687C34.5295 48.9745 34.4555 49.2787 34.3799 49.5845C34.3187 49.8388 34.3187 49.8388 34.2559 50.0995C34.132 50.5517 33.9823 50.9734 33.7973 51.4047C33.4126 51.2856 33.2002 51.1681 33.0038 50.8108C32.8848 50.5292 32.7769 50.2427 32.6707 49.9562C32.5114 50.4342 32.352 50.9122 32.1879 51.4047C32.0286 51.4047 31.8692 51.4047 31.7051 51.4047C31.1965 50.5501 31.0018 49.6569 30.9004 48.6687C30.9535 48.6156 31.0066 48.5625 31.0613 48.5078Z" fill="#203351"/>
<path d="M65.211 48.4453C65.8049 48.4534 66.2459 48.4727 66.74 48.8171C67.1745 49.3932 67.2485 49.7135 67.1922 50.4216C67.1117 50.7596 67.1117 50.7596 66.8204 51.1716C66.0656 51.5112 65.3527 51.4532 64.5367 51.4033C64.2937 50.9157 64.3098 50.3991 64.276 49.8632C64.268 49.7505 64.2583 49.6395 64.2503 49.5236C64.2309 49.2387 64.2229 48.9523 64.2148 48.6674C64.49 48.3906 64.8345 48.4582 65.211 48.4453ZM65.1805 48.9893C64.9777 49.3948 65.0034 49.6829 65.0099 50.1352C65.0115 50.2816 65.0131 50.4281 65.0147 50.5793C65.0163 50.692 65.0179 50.8047 65.0195 50.9205C65.3945 50.9817 65.7695 51.0348 66.1461 51.0815C66.4004 50.8272 66.3344 50.5665 66.3376 50.2156C66.3392 50.0885 66.3424 49.9613 66.344 49.8294C66.3312 49.4254 66.3312 49.4254 65.9852 48.9893C65.5699 48.9474 65.5699 48.9474 65.1805 48.9893Z" fill="#203351"/>
<path d="M128.912 48.5078C129.443 48.5078 129.974 48.5078 130.522 48.5078C130.522 48.614 130.522 48.7202 130.522 48.8297C130.681 48.8828 130.84 48.9359 131.004 48.9906C130.974 49.1467 130.945 49.3028 130.914 49.4638C130.89 49.6263 130.868 49.7889 130.844 49.9563C130.897 50.0094 130.95 50.0625 131.004 50.1172C131.035 50.5903 131.035 50.5903 131.004 51.0828C130.683 51.4047 130.683 51.4047 130.3 51.4369C130.153 51.432 130.008 51.4288 129.859 51.424C129.638 51.4208 129.638 51.4208 129.414 51.416C129.302 51.4127 129.189 51.4079 129.073 51.4047C128.878 50.8221 128.895 50.2894 128.903 49.6843C128.903 49.5716 128.904 49.459 128.904 49.3431C128.906 49.0647 128.909 48.7862 128.912 48.5078ZM129.878 48.9906C129.825 49.2031 129.772 49.4155 129.717 49.6344C129.876 49.6344 130.036 49.6344 130.2 49.6344C130.2 49.4219 130.2 49.2095 130.2 48.9906C130.094 48.9906 129.987 48.9906 129.878 48.9906ZM129.717 50.1172C129.717 50.3827 129.717 50.6483 129.717 50.9219C129.876 50.9219 130.036 50.9219 130.2 50.9219C130.2 50.6563 130.2 50.3908 130.2 50.1172C130.04 50.1172 129.881 50.1172 129.717 50.1172ZM130.361 50.4391C130.522 50.9219 130.522 50.9219 130.522 50.9219L130.361 50.4391Z" fill="#203351"/>
<path d="M48.6035 48.5098C50.1517 48.4696 50.1517 48.4696 50.6957 48.8317C50.7359 49.3032 50.7424 49.6734 50.575 50.1192C50.5074 50.6647 50.8647 50.9866 51.1785 51.4067C50.8261 51.4775 50.8261 51.4775 50.3738 51.4067C50.0552 51.0623 49.8105 50.6824 49.5691 50.2801C49.6223 50.6519 49.6754 51.0236 49.7301 51.4067C49.3583 51.4067 48.9865 51.4067 48.6035 51.4067C48.7097 51.3536 48.816 51.3004 48.9254 51.2457C48.8192 51.1926 48.713 51.1395 48.6035 51.0848C48.6035 50.235 48.6035 49.3853 48.6035 48.5098ZM49.5691 48.9926C49.516 49.2581 49.4629 49.5237 49.4082 49.7973C49.6738 49.7973 49.9393 49.7973 50.2129 49.7973C50.1067 49.5317 50.0005 49.2662 49.891 48.9926C49.7848 48.9926 49.6786 48.9926 49.5691 48.9926Z" fill="#203351"/>
<path d="M42.4891 48.8262C42.819 49.0917 42.9558 49.2301 43.0411 49.6502C43.0427 50.6512 43.0427 50.6512 42.6999 51.1597C42.1012 51.5492 41.731 51.6039 41.031 51.4623C40.4596 51.1935 40.2198 50.9875 39.9141 50.4355C39.9237 49.8803 39.9607 49.4924 40.2552 49.0177C41.0165 48.5365 41.6956 48.3627 42.4891 48.8262ZM40.899 49.2382C40.6399 49.8014 40.7284 50.1652 40.8797 50.7574C41.0551 51.0938 41.0551 51.0938 41.3625 51.2402C41.7858 51.2273 41.7858 51.2273 42.1672 51.0793C42.3941 50.627 42.275 50.3438 42.1768 49.8529C42.1463 49.6904 42.1141 49.5295 42.0819 49.3637C42.0577 49.2398 42.032 49.1142 42.0063 48.9871C41.4011 48.9404 41.4011 48.9404 40.899 49.2382Z" fill="#203351"/>
<path d="M93.1844 48.5078C93.561 48.5545 93.936 48.6076 94.3109 48.6688C94.3109 48.775 94.3109 48.8812 94.3109 48.9906C94.2047 48.9906 94.0985 48.9906 93.9891 48.9906C94.0422 49.2562 94.0953 49.5217 94.15 49.7953C94.2128 49.7132 94.2739 49.6328 94.3383 49.5491C94.4638 49.3914 94.4638 49.3914 94.5926 49.232C94.6747 49.1274 94.7567 49.0228 94.842 48.915C95.1156 48.6688 95.1156 48.6688 95.7594 48.6688C95.7594 48.775 95.7594 48.8812 95.7594 48.9906C95.4439 49.2143 95.1221 49.43 94.7937 49.6344C94.8694 50.32 95.2766 50.6241 95.7594 51.0828C95.8125 51.189 95.8656 51.2952 95.9203 51.4047C95.4874 51.4658 95.4874 51.4658 94.9547 51.4047C94.6232 51.1118 94.4091 50.8044 94.15 50.4391C94.2031 50.7577 94.2562 51.0764 94.3109 51.4047C93.8861 51.4047 93.4612 51.4047 93.0234 51.4047C93.0765 51.2985 93.1297 51.1923 93.1844 51.0828C93.1651 50.674 93.1393 50.2717 93.1039 49.8661C93.0685 49.4654 93.0427 49.0695 93.0234 48.6688C93.0765 48.6156 93.1297 48.5625 93.1844 48.5078Z" fill="#203351"/>
<path d="M101.707 48.4844C101.836 48.4844 101.963 48.486 102.095 48.486C102.223 48.486 102.351 48.4844 102.481 48.4844C102.84 48.5053 102.84 48.5053 103.323 48.6662C103.323 48.8787 103.323 49.0911 103.323 49.31C103.004 49.2038 102.685 49.0975 102.357 48.9881C102.304 49.2005 102.251 49.413 102.196 49.6319C102.515 49.6319 102.833 49.6319 103.162 49.6319C103.162 49.8974 103.162 50.163 103.162 50.4365C102.949 50.3834 102.737 50.3303 102.518 50.2756C102.412 50.488 102.306 50.7005 102.196 50.9194C102.862 50.9532 102.862 50.9532 103.484 50.7584C103.43 50.9709 103.377 51.1833 103.323 51.4022C102.738 51.4022 102.154 51.4022 101.552 51.4022C101.309 50.9161 101.324 50.3995 101.29 49.8636C101.282 49.751 101.274 49.6383 101.266 49.524C101.247 49.2376 101.239 48.9527 101.23 48.6662C101.391 48.5053 101.391 48.5053 101.707 48.4844Z" fill="#203351"/>
<path d="M115.714 48.6719C115.874 48.6719 116.033 48.6719 116.197 48.6719C116.622 49.5747 117.047 50.4776 117.485 51.4078C117.06 51.4078 116.635 51.4078 116.197 51.4078C116.303 51.3547 116.41 51.3016 116.519 51.2469C116.413 51.1938 116.307 51.1407 116.197 51.0859C116.197 50.9266 116.197 50.7673 116.197 50.6031C115.985 50.6562 115.772 50.7093 115.554 50.7641C115.5 50.9765 115.447 51.1889 115.393 51.4078C115.127 51.4078 114.861 51.4078 114.588 51.4078C114.694 51.3547 114.8 51.3016 114.91 51.2469C114.968 50.8719 115.021 50.4969 115.071 50.1203C115.246 49.6166 115.468 49.1466 115.714 48.6719ZM115.714 49.7984C115.714 49.9578 115.714 50.1171 115.714 50.2812C115.874 50.2281 116.033 50.175 116.197 50.1203C116.144 50.0141 116.091 49.9079 116.036 49.7984C115.93 49.7984 115.824 49.7984 115.714 49.7984Z" fill="#203351"/>
<path d="M137.763 48.6719C137.923 48.6719 138.082 48.6719 138.246 48.6719C138.325 48.8425 138.405 49.0131 138.487 49.1885C138.59 49.4122 138.695 49.6359 138.8 49.8596C138.851 49.9706 138.904 50.0833 138.957 50.1992C139.241 50.8059 139.241 50.8059 139.534 51.4078C139.109 51.4078 138.684 51.4078 138.246 51.4078C138.352 51.3547 138.459 51.3016 138.568 51.2469C138.462 51.1938 138.356 51.1407 138.246 51.0859C138.246 50.9266 138.246 50.7673 138.246 50.6031C138.034 50.6562 137.821 50.7093 137.602 50.7641C137.549 50.9765 137.496 51.1889 137.441 51.4078C137.176 51.4078 136.91 51.4078 136.637 51.4078C136.743 51.3547 136.849 51.3016 136.959 51.2469C137.017 50.8719 137.07 50.4969 137.12 50.1203C137.295 49.6166 137.517 49.1466 137.763 48.6719ZM137.763 49.7984C137.71 49.9578 137.657 50.1171 137.602 50.2812C137.815 50.2281 138.027 50.175 138.246 50.1203C138.193 50.0141 138.14 49.9079 138.085 49.7984C137.979 49.7984 137.873 49.7984 137.763 49.7984Z" fill="#203351"/>
<path d="M152.731 48.5078C153.108 48.5545 153.483 48.6076 153.858 48.6687C153.858 48.775 153.858 48.8812 153.858 48.9906C153.752 48.9906 153.645 48.9906 153.536 48.9906C153.536 49.681 153.536 50.3715 153.536 51.0828C153.961 50.9766 154.386 50.8704 154.823 50.7609C154.77 50.9734 154.717 51.1858 154.663 51.4047C154.078 51.4047 153.494 51.4047 152.892 51.4047C152.649 50.917 152.665 50.4004 152.631 49.8661C152.622 49.7535 152.614 49.6408 152.606 49.5249C152.586 49.2401 152.578 48.9536 152.57 48.6687C152.623 48.6156 152.677 48.5625 152.731 48.5078Z" fill="#203351"/>
<path d="M78.698 48.5078C79.0697 48.5609 79.4415 48.614 79.8245 48.6687C79.7714 48.8281 79.7183 48.9874 79.6636 49.1516C79.6282 49.4557 79.5976 49.7615 79.5735 50.0673C79.559 50.2266 79.5461 50.3876 79.5316 50.5517C79.522 50.674 79.5123 50.7963 79.5027 50.9219C80.1689 50.9557 80.1689 50.9557 80.7902 50.7609C80.737 50.9734 80.6839 51.1858 80.6292 51.4047C80.045 51.4047 79.4608 51.4047 78.8589 51.4047C78.603 50.8913 78.6819 50.3377 78.6883 49.776C78.6883 49.6537 78.6899 49.533 78.6899 49.4075C78.6915 49.1081 78.6947 48.8072 78.698 48.5078ZM78.8589 49.1516C78.8589 49.7889 78.8589 50.4262 78.8589 51.0828C78.912 51.0828 78.9651 51.0828 79.0198 51.0828C79.0198 50.4455 79.0198 49.8082 79.0198 49.1516C78.9667 49.1516 78.9136 49.1516 78.8589 49.1516Z" fill="#203351"/>
<path d="M56.6511 48.5078C57.0229 48.5609 57.3946 48.614 57.7777 48.6687C57.7245 48.8281 57.6714 48.9874 57.6167 49.1516C57.5813 49.4557 57.5507 49.7615 57.5266 50.0673C57.5121 50.2266 57.4992 50.3876 57.4847 50.5517C57.4751 50.674 57.4654 50.7963 57.4558 50.9219C58.1221 50.9557 58.1221 50.9557 58.7433 50.7609C58.6902 50.9734 58.6371 51.1858 58.5823 51.4047C57.9981 51.4047 57.4139 51.4047 56.812 51.4047C56.5561 50.8913 56.635 50.3377 56.6414 49.776C56.6414 49.6537 56.643 49.533 56.643 49.4075C56.6447 49.1081 56.6479 48.8072 56.6511 48.5078Z" fill="#203351"/>
<path d="M145.006 48.5078C145.378 48.5609 145.75 48.614 146.133 48.6687C146.079 48.8281 146.026 48.9874 145.972 49.1516C145.96 49.4557 145.959 49.7615 145.962 50.0673C145.964 50.2266 145.965 50.3876 145.965 50.5517C145.968 50.674 145.97 50.7963 145.972 50.9219C146.556 50.946 146.556 50.946 147.098 50.7609C147.045 50.9734 146.992 51.1858 146.937 51.4047C146.353 51.4047 145.769 51.4047 145.167 51.4047C144.972 50.8221 144.988 50.2894 144.996 49.6843C144.996 49.5716 144.998 49.459 144.998 49.3431C145 49.0647 145.003 48.7862 145.006 48.5078Z" fill="#203351"/>
<path d="M86.4227 48.5078C86.7993 48.5545 87.1742 48.6076 87.5492 48.6687C87.5492 48.775 87.5492 48.8812 87.5492 48.9906C87.443 48.9906 87.3368 48.9906 87.2273 48.9906C87.2273 49.7342 87.2273 50.4777 87.2273 51.2437C87.3336 51.2969 87.4398 51.35 87.5492 51.4047C87.1243 51.4047 86.6995 51.4047 86.2617 51.4047C86.3148 51.2985 86.3679 51.1922 86.4227 51.0828C86.4033 50.674 86.3776 50.2717 86.3422 49.8661C86.3068 49.4654 86.281 49.0695 86.2617 48.6687C86.3148 48.6156 86.3679 48.5625 86.4227 48.5078Z" fill="#203351"/>
</svg>
